<svg width="178" height="250" viewBox="0 0 178 250" fill="none" xmlns="http://www.w3.org/2000/svg">
<path d="M57.937 182.391V249.461H22.737C22.137 249.461 21.587 249.211 21.197 248.821C20.807 248.431 20.557 247.881 20.557 247.281C20.557 246.471 20.997 245.741 21.707 245.361L27.337 242.321C28.157 241.881 28.507 240.881 28.137 240.021L16.437 212.801C0.72697 184.241 -3.92303 150.891 3.35697 119.121L6.93697 103.521L31.207 141.051L57.937 182.391Z" fill="url(#paint0_linear_142_5306)"/>
<path opacity="0.1" d="M57.9369 182.391V249.461H44.3069C37.0069 246.301 50.4269 239.701 50.5569 237.661C51.7869 218.651 49.0669 189.921 49.0669 189.921C26.0769 179.331 15.6069 145.531 15.9069 146.181C15.9069 146.181 21.8769 144.021 31.2069 141.051L57.9369 182.391Z" fill="#0B2792"/>
<path d="M154.359 155.779C166.136 163.696 180.716 184.581 177.564 188.128C174.411 191.675 160.619 185.095 160.619 185.095L154.359 155.779Z" fill="url(#paint1_linear_142_5306)"/>
<path d="M164.867 220.111L163.227 224.671C160.657 231.831 156.227 238.191 150.417 243.111C147.967 245.181 145.187 246.791 142.217 247.881C139.247 248.971 136.077 249.541 132.867 249.541H99.3669C98.0269 249.541 96.9469 248.461 96.9469 247.131C96.9469 246.391 97.2769 245.711 97.8269 245.271C97.9269 245.181 98.0369 245.111 98.1469 245.041L103.007 242.221C104.107 241.591 104.347 240.101 103.507 239.151L102.977 238.551C96.3269 233.251 87.9569 224.751 87.9569 224.751L86.0769 233.621C85.2769 238.351 83.4669 242.871 80.7769 246.851C79.5069 248.751 77.3669 249.871 75.0969 249.871H74.8769L50.8969 249.121C49.5569 249.081 48.5269 247.911 48.6569 246.591C48.7169 245.931 49.0469 245.331 49.5769 244.941L52.1869 242.971C53.2169 242.211 53.8169 241.011 53.8269 239.721L54.0369 210.471C54.0969 202.111 53.6069 193.751 52.5669 185.441C52.5569 185.371 52.5569 185.311 52.5469 185.241L50.3369 184.081C42.9969 180.241 36.4169 175.101 30.9069 168.921C15.1369 151.251 7.04688 128.861 7.04688 106.311C7.04688 89.411 11.5969 72.431 20.8669 57.271L15.3469 50.011C15.0369 49.601 14.9469 49.061 15.0969 48.561L15.6569 46.741C15.9169 45.911 16.7969 45.431 17.6369 45.671L25.1069 47.841L39.5969 36.131C40.2369 35.621 40.9069 35.161 41.6169 34.761L54.3769 27.521C55.6069 26.821 57.0569 26.631 58.4169 26.991L61.9169 27.901C62.8669 28.141 63.8769 28.131 64.8169 27.851L78.6669 23.771C79.0569 23.651 79.4469 23.521 79.8169 23.361L84.3369 21.521C84.6169 21.401 84.9369 21.401 85.2269 21.521L86.5769 22.071C86.9569 22.221 87.2269 22.571 87.2869 22.981L88.4369 30.631C88.4569 30.761 88.4469 30.891 88.3969 31.011L87.8369 32.371C87.6569 32.801 87.9369 33.301 88.4069 33.361L89.3169 33.471C89.5769 33.501 89.7969 33.681 89.8869 33.931L91.2869 37.741C91.6569 38.751 91.5769 39.881 91.0569 40.821L81.5669 58.361C81.0669 59.281 80.7069 60.271 80.4969 61.291L76.5669 80.051C76.2869 81.441 76.2669 82.861 76.5269 84.241L78.4869 94.721C78.7769 96.261 79.2069 97.751 79.7769 99.181C80.9269 102.101 82.6469 104.791 84.8369 107.081L101.207 124.151C103.587 126.621 106.457 128.571 109.637 129.861L120.497 133.011C147.537 140.871 165.667 164.141 168.477 190.271C169.537 200.041 168.447 210.201 164.867 220.111Z" fill="url(#paint2_linear_142_5306)"/>
<path opacity="0.1" d="M164.867 220.111L163.227 224.671C160.657 231.831 156.227 238.191 150.417 243.111C147.967 245.181 145.187 246.791 142.217 247.881C139.247 248.971 136.077 249.541 132.867 249.541H99.9369C98.5769 247.921 97.8369 246.451 97.8269 245.271C97.8169 243.511 99.4269 242.361 103.007 242.221C103.687 242.191 104.447 242.201 105.267 242.251C140.657 244.291 160.245 207.571 148.905 176.491C137.565 145.411 117.517 136.301 109.957 134.031C102.387 131.761 95.9669 124.501 92.3369 120.321C88.7069 116.141 78.4969 105.441 77.3469 102.271C76.1869 99.091 73.7269 87.971 73.2769 83.891C72.8269 79.811 75.5469 63.701 77.7069 58.711C79.8669 53.711 90.8369 36.521 89.8869 33.931L91.2869 37.741C91.6569 38.751 91.5769 39.881 91.0569 40.821L81.5669 58.361C81.0669 59.281 80.7069 60.271 80.4969 61.291L76.5669 80.051C76.2869 81.441 76.2669 82.861 76.5269 84.241L78.4869 94.721C78.7769 96.261 79.2069 97.751 79.7769 99.181C80.9269 102.101 82.6469 104.791 84.8369 107.081L101.207 124.151C103.587 126.621 106.457 128.571 109.637 129.861L120.497 133.011C147.537 140.871 165.667 164.141 168.477 190.271C169.537 200.041 168.447 210.201 164.867 220.111Z" fill="#0B2792"/>
<path d="M51.7289 39.146C50.4279 39.986 49.0699 40.198 48.6959 39.619C48.3219 39.04 49.0729 37.889 50.3739 37.049C51.6749 36.209 53.0329 35.997 53.4069 36.576C53.7809 37.155 53.0299 38.305 51.7289 39.146Z" fill="#00062A"/>
<path d="M94.3549 164.165L92.1439 197.913L86.0799 233.617C85.2719 238.354 83.4689 242.871 80.7809 246.851C79.5049 248.748 77.3699 249.87 75.0989 249.87H74.8779L50.8939 249.121C49.5589 249.078 48.5299 247.913 48.6569 246.586C48.7169 245.931 49.0479 245.327 49.5759 244.936L52.1869 242.971C53.2159 242.206 53.8199 241.006 53.8289 239.722L54.0419 210.473C54.1019 202.104 53.6079 193.743 52.5709 185.434C52.5629 185.366 52.5539 185.306 52.5449 185.238C50.1639 165.038 31.7839 129.385 57.9369 121.526C84.1749 113.653 94.3549 146.151 94.3549 164.165Z" fill="url(#paint3_linear_142_5306)"/>
<path opacity="0.1" d="M94.3569 164.161L92.1469 197.911L86.0769 233.621C85.2769 238.351 83.4669 242.871 80.7769 246.851C79.5069 248.751 77.3669 249.871 75.0969 249.871H74.8769L71.6669 249.771C72.7469 249.261 73.6969 248.451 74.3869 247.431C77.0669 243.451 78.8769 238.931 79.6769 234.191L85.7469 198.491L87.9569 164.741C87.9569 148.901 80.0769 121.851 60.3269 120.921C84.7969 115.651 94.3569 146.711 94.3569 164.161Z" fill="#0B2792"/>
<path d="M164.871 220.112L163.23 224.671C160.653 231.832 156.23 238.194 150.421 243.11C147.963 245.185 145.19 246.793 142.214 247.881C139.246 248.97 136.082 249.54 132.867 249.54H99.365C98.03 249.54 96.95 248.46 96.95 247.133C96.95 246.265 97.409 245.474 98.149 245.041L103.005 242.226C104.102 241.588 104.349 240.1 103.507 239.147L102.98 238.552C99.433 234.529 96.822 229.766 95.325 224.612C94.313 221.099 93.803 217.485 93.803 213.861C93.803 210.774 94.169 207.695 94.909 204.676L96.95 196.324C100.326 183.796 128.308 155.814 157.864 173.156C164.124 176.83 167.322 182.928 168.478 190.268C169.532 200.04 168.443 210.203 164.871 220.112Z" fill="url(#paint4_linear_142_5306)"/>
<path opacity="0.1" d="M164.867 220.111L163.227 224.671C160.657 231.831 156.227 238.191 150.417 243.111C147.967 245.181 145.187 246.791 142.217 247.881C139.247 248.971 136.077 249.541 132.867 249.541H124.867C128.077 249.541 131.247 248.971 134.217 247.881C137.187 246.791 139.967 245.181 142.417 243.111C148.227 238.191 152.657 231.831 155.227 224.671L156.867 220.111C160.447 210.201 161.537 200.041 160.477 190.271C159.317 182.931 156.127 176.831 149.867 173.151C144.617 170.071 139.417 168.421 134.387 167.861C141.777 167.051 149.767 168.401 157.867 173.151C164.127 176.831 167.317 182.931 168.477 190.271C169.537 200.041 168.447 210.201 164.867 220.111Z" fill="#0B2792"/>
<defs>
<linearGradient id="paint0_linear_142_5306" x1="-3.57833" y1="168.569" x2="152.827" y2="236.682" gradientUnits="userSpaceOnUse">
<stop stop-color="white"/>
<stop offset="0.2513" stop-color="#C7D1FB"/>
<stop offset="0.826" stop-color="#3B5DF3"/>
<stop offset="1" stop-color="#1039F0"/>
</linearGradient>
<linearGradient id="paint1_linear_142_5306" x1="118.925" y1="156.138" x2="195.821" y2="184.854" gradientUnits="userSpaceOnUse">
<stop stop-color="#1039F0"/>
<stop offset="0.1217" stop-color="#3053F2"/>
<stop offset="0.5584" stop-color="#9EAFF9"/>
<stop offset="0.86" stop-color="#E4E9FD"/>
<stop offset="1" stop-color="white"/>
</linearGradient>
<linearGradient id="paint2_linear_142_5306" x1="183.569" y1="314.999" x2="36.383" y2="85.9953" gradientUnits="userSpaceOnUse">
<stop stop-color="#1039F0"/>
<stop offset="0.042" stop-color="#1F45F1"/>
<stop offset="0.2454" stop-color="#627DF5"/>
<stop offset="0.4385" stop-color="#9AABF9"/>
<stop offset="0.6157" stop-color="#C6CFFB"/>
<stop offset="0.7739" stop-color="#E5E9FD"/>
<stop offset="0.9074" stop-color="#F8F9FF"/>
<stop offset="1" stop-color="white"/>
</linearGradient>
<linearGradient id="paint3_linear_142_5306" x1="121.719" y1="274.132" x2="37.4305" y2="144.258" gradientUnits="userSpaceOnUse">
<stop stop-color="#1039F0"/>
<stop offset="0.0628" stop-color="#264CF1"/>
<stop offset="0.2591" stop-color="#6781F5"/>
<stop offset="0.4461" stop-color="#9DAEF9"/>
<stop offset="0.6188" stop-color="#C8D1FC"/>
<stop offset="0.774" stop-color="#E6EAFD"/>
<stop offset="0.9063" stop-color="#F8FAFF"/>
<stop offset="1" stop-color="white"/>
</linearGradient>
<linearGradient id="paint4_linear_142_5306" x1="199.67" y1="233.36" x2="103.413" y2="202.863" gradientUnits="userSpaceOnUse">
<stop stop-color="#1039F0"/>
<stop offset="0.1217" stop-color="#3053F2"/>
<stop offset="0.5584" stop-color="#9EAFF9"/>
<stop offset="0.86" stop-color="#E4E9FD"/>
<stop offset="1" stop-color="white"/>
</linearGradient>
</defs>
</svg>
